<svg xmlns="http://www.w3.org/2000/svg" viewBox="0.7 2.4 28.6 28.6"><path d="M 9.5449219 3 C 5.3895807 3 2 6.3895806 2 10.544922 C 2 14.283156 4.9005496 18.084723 7.6601562 21.119141 C 10.419763 24.153558 13.171875 26.369141 13.171875 26.369141 C 13.642797 26.725148 14.201794 26.943857 14.808594 26.984375 A 1.0001 1.0001 0 0 0 15.199219 26.982422 C 15.802918 26.940449 16.359155 26.723674 16.802734 26.388672 C 16.828125 26.369141 19.580237 24.153558 22.339844 21.119141 C 25.099451 18.084722 28 14.283156 28 10.544922 C 28 6.3895806 24.610419 3 20.455078 3 C 17.841043 3 15.989939 4.4385487 15 5.4570312 C 14.010061 4.4385487 12.158957 3 9.5449219 3 z M 9.5449219 5 C 16.049938 7.2575052 17.716133 5 20.455078 5" fill="#ed4956"  stroke="#ed4956" stroke-width="0.4" /></svg>
